ModelForces
version=1
nRows=27
nColumns=15
inDegrees=no

This file contains the forces exerted on a model during a simulation.

A force is a generalized force, meaning that it can be either a force (N) or a torque (Nm).

Units are S.I. units (second, meters, Newtons, ...)
Angles are in degrees.

endheader
time	Liu	Thelen	contactForce.block.force.X	contactForce.block.force.Y	contactForce.block.force.Z	contactForce.block.torque.X	contactForce.block.torque.Y	contactForce.block.torque.Z	contactForce.ground.force.X	contactForce.ground.force.Y	contactForce.ground.force.Z	contactForce.ground.torque.X	contactForce.ground.torque.Y	contactForce.ground.torque.Z
      0.46499565	      0.22148932	   5752.23713611	     -0.00000000	    198.21076793	    -49.55260340	      2.46780136	      0.00000000	      0.00000000	      0.00000000	   -198.21076793	     49.55260340	    -57.26850408	     -0.00000000	     -0.00000000
      0.46538966	      0.30522779	   3984.98909043	     -0.00000000	    170.37925346	    -42.59473871	      2.12247455	      0.00000000	      0.00000000	      0.00000000	   -170.37925346	     42.59473871	    -48.51371419	     -0.00000000	     -0.00000000
      0.46578367	      0.38974919	   5529.20580799	     -0.00000000	    142.73664698	    -35.68410016	      1.77910802	      0.00000000	      0.00000000	      0.00000000	   -142.73664698	     35.68410016	    -40.03949422	     -0.00000000	     -0.00000000
      0.46612664	      0.46387409	   3762.90479103	     -0.00000000	    118.99717789	    -29.74924392	      1.48391969	      0.00000000	      0.00000000	      0.00000000	   -118.99717789	     29.74924392	    -32.93920437	     -0.00000000	     -0.00000000
      0.46646962	      0.53853274	   4468.46083819	     -0.00000000	     95.70518865	    -23.92625702	      1.19402144	      0.00000000	      0.00000000	      0.00000000	    -95.70518865	     23.92625702	    -26.13455403	     -0.00000000	     -0.00000000
      0.46681259	      0.61366895	   3886.22221373	     -0.00000000	     72.99876686	    -18.24966149	      0.91115000	      0.00000000	      0.00000000	      0.00000000	    -72.99876686	     18.24966149	    -19.65978259	     -0.00000000	     -0.00000000
      0.46732147	      0.72601521	   4131.29490750	     -0.00000000	     40.67421298	    -10.16853669	      0.50801298	      0.00000000	      0.00000000	      0.00000000	    -40.67421298	     10.16853669	    -10.72575996	     -0.00000000	     -0.00000000
      0.46771207	      0.81287889	   2655.65590352	     -0.00000000	     17.20033657	     -4.30007723	      0.21492986	      0.00000000	      0.00000000	      0.00000000	    -17.20033657	      4.30007723	     -4.46101151	     -0.00000000	     -0.00000000
      0.46810268	      0.90027637	   3820.80884907	      0.00000000	      0.00000000	      0.00000000	      0.00000000	      0.00000000	      0.00000000	      0.00000000	      0.00000000	      0.00000000	      0.00000000	      0.00000000	      0.00000000
      0.46849329	      0.98811788	   1748.16964151	      0.00000000	      0.00000000	      0.00000000	      0.00000000	      0.00000000	      0.00000000	      0.00000000	      0.00000000	      0.00000000	      0.00000000	      0.00000000	      0.00000000
      0.46884337	      1.06723487	   3115.36980418	      0.00000000	      0.00000000	      0.00000000	      0.00000000	      0.00000000	      0.00000000	      0.00000000	      0.00000000	      0.00000000	      0.00000000	      0.00000000	      0.00000000
      0.46919346	      1.14664538	   2174.34961553	      0.00000000	      0.00000000	      0.00000000	      0.00000000	      0.00000000	      0.00000000	      0.00000000	      0.00000000	      0.00000000	      0.00000000	      0.00000000	      0.00000000
      0.46962968	      1.24601844	   2466.56204489	      0.00000000	      0.00000000	      0.00000000	      0.00000000	      0.00000000	      0.00000000	      0.00000000	      0.00000000	      0.00000000	      0.00000000	      0.00000000	      0.00000000
      0.47006590	      1.34576912	    771.42799142	      0.00000000	      0.00000000	      0.00000000	      0.00000000	      0.00000000	      0.00000000	      0.00000000	      0.00000000	      0.00000000	      0.00000000	      0.00000000	      0.00000000
      0.47044554	      1.43287611	   1829.58499961	      0.00000000	      0.00000000	      0.00000000	      0.00000000	      0.00000000	      0.00000000	      0.00000000	      0.00000000	      0.00000000	      0.00000000	      0.00000000	      0.00000000
      0.47082518	      1.52017732	   1098.21744093	      0.00000000	      0.00000000	      0.00000000	      0.00000000	      0.00000000	      0.00000000	      0.00000000	      0.00000000	      0.00000000	      0.00000000	      0.00000000	      0.00000000
      0.47132020	      1.63429823	   1237.04827744	      0.00000000	      0.00000000	      0.00000000	      0.00000000	      0.00000000	      0.00000000	      0.00000000	      0.00000000	      0.00000000	      0.00000000	      0.00000000	      0.00000000
      0.47181521	      1.74862967	    103.94449021	      0.00000000	      0.00000000	      0.00000000	      0.00000000	      0.00000000	      0.00000000	      0.00000000	      0.00000000	      0.00000000	      0.00000000	      0.00000000	      0.00000000
      0.47231023	      1.86314702	    443.96143565	      0.00000000	      0.00000000	      0.00000000	      0.00000000	      0.00000000	      0.00000000	      0.00000000	      0.00000000	      0.00000000	      0.00000000	      0.00000000	      0.00000000
      0.47302571	      2.02881448	    220.10940956	      0.00000000	      0.00000000	      0.00000000	      0.00000000	      0.00000000	      0.00000000	      0.00000000	      0.00000000	      0.00000000	      0.00000000	      0.00000000	      0.00000000
      0.47432663	      2.33027137	      1.99913214	      0.00000000	      0.00000000	      0.00000000	      0.00000000	      0.00000000	      0.00000000	      0.00000000	      0.00000000	      0.00000000	      0.00000000	      0.00000000	      0.00000000
      0.47710243	      2.97358511	      1.85533141	      0.00000000	      0.00000000	      0.00000000	      0.00000000	      0.00000000	      0.00000000	      0.00000000	      0.00000000	      0.00000000	      0.00000000	      0.00000000	      0.00000000
      0.47987822	      3.61689097	      1.64773733	     -0.00000000	     30.59777817	     -7.64943315	      0.38223774	      0.00000000	      0.00000000	      0.00000000	    -30.59777817	      7.64943315	     -3.64589215	     -0.00000000	     -0.00000000
      0.48132615	      3.95242996	      1.52738425	     -0.00000000	    124.71007503	    -31.17747230	      1.55498814	      0.00000000	      0.00000000	      0.00000000	   -124.71007503	     31.17747230	    -12.76763557	     -0.00000000	     -0.00000000
      0.48225616	   5869.51340578	      1.44725617	     -0.00000000	    189.73169955	    -47.43285341	      2.36264949	      0.00000000	      0.00000000	      0.00000000	   -189.73169955	     47.43285341	    -17.38185210	     -0.00000000	     -0.00000000
      0.48318618	  16770.99518214	      1.36786878	     -0.00000000	    254.76890803	    -63.69212153	      3.16839044	      0.00000000	      0.00000000	      0.00000000	   -254.76890803	     63.69212153	    -20.66338347	     -0.00000000	     -0.00000000
      0.48688618	  48483.40313550	      1.15070803	     -0.00000000	    447.44439905	   -111.86002224	      5.54296374	      0.00000000	      0.00000000	      0.00000000	   -447.44439905	    111.86002224	    -22.61530576	     -0.00000000	     -0.00000000
